# xmcd CD database file
#
# Track frame offsets:
#	150
#	19557
#	41513
#	60632
#	82120
#	102385
#	120188
#	141574
#	160341
#	181296
#	202351
#	227497
#	246750
#	271953
#	290191
#	311616
#	330146
#
# Disc length: 4653 seconds
#
# Revision: 0
# Processed by: cddbd v1.5.2PL0 Copyright (c) Steve Scherf et al.
# Submitted via: CDex 1.70beta2
#
DISCID=f2122b11
DTITLE=ﾂbﾂﾅﾂﾌﾂﾉﾂﾎﾂﾅﾁ@ﾂcﾂﾉﾂﾏﾂﾎ - ﾂsﾂﾈﾂﾅﾁ@ﾂuﾂﾅﾂﾒﾂﾙﾁ@ﾂaﾂﾅﾂﾓﾂﾙﾁ@ﾁiﾃsﾃbﾃNﾃAﾃbﾃvﾔￅﾁj
DYEAR=1900
DGENRE=Salsa
TTITLE0=ﾂbﾂﾅﾂﾌﾂﾉﾂﾎﾂﾅﾁ@ﾂcﾂﾉﾂﾏﾂﾎ - ﾂgﾂﾁﾂﾐﾂﾐﾂﾙﾁ@ﾂwﾂﾍﾂﾁﾂﾓﾁ@ﾁiﾂvﾂﾁﾂﾒﾁ@ﾂﾉﾂﾓﾁ@ﾂnﾂﾖﾂﾅﾂﾒﾁj
TTITLE1=ﾂbﾂﾅﾂﾌﾂﾉﾂﾎﾂﾅﾁ@ﾂcﾂﾉﾂﾏﾂﾎ - ﾂsﾂﾈﾂﾅﾁ@ﾂoﾂnﾂﾗﾂﾅﾂﾒﾁ@ﾂﾏﾂﾆﾁ@ﾂkﾂﾏﾂﾖﾂﾅﾁ@ﾁiﾂqﾂ`ﾂcﾂhﾂnﾁ@ﾂdﾂcﾂhﾂsﾁj
TTITLE2=ﾂbﾂﾅﾂﾌﾂﾉﾂﾎﾂﾅﾁ@ﾂcﾂﾉﾂﾏﾂﾎ - ﾂsﾂﾈﾂﾅﾂﾎﾁ@ﾂxﾂﾏﾂﾕﾁ@ﾂkﾂﾏﾂﾏﾂﾋﾁ@ﾂ`ﾂﾔﾁ@ﾂlﾂﾅ
TTITLE3=ﾂbﾂﾅﾂﾌﾂﾉﾂﾎﾂﾅﾁ@ﾂcﾂﾉﾂﾏﾂﾎ - ﾂsﾂﾏﾁ@ﾂkﾂﾏﾂﾖﾂﾅﾁ@ﾂxﾂﾏﾂﾕﾁ@ﾂlﾂﾏﾂﾒﾂﾅﾁ@ﾁiﾂqﾂﾁﾂﾄﾂﾉﾂﾏﾁ@ﾂdﾂﾄﾂﾉﾂﾔﾁj
TTITLE4=ﾂbﾂﾅﾂﾌﾂﾉﾂﾎﾂﾅﾁ@ﾂcﾂﾉﾂﾏﾂﾎ - ﾂ`ﾂﾌﾂﾌﾁ@ﾂaﾂﾙﾁ@ﾂlﾂﾙﾂﾓﾂﾅﾂﾌﾂﾆﾁ@ﾁiﾂrﾂﾉﾂﾎﾂﾇﾂﾌﾂﾅﾁ@ﾂuﾂﾅﾂﾒﾂﾓﾂﾉﾂﾏﾂﾎﾁj
TTITLE5=ﾂbﾂﾅﾂﾌﾂﾉﾂﾎﾂﾅﾁ@ﾂcﾂﾉﾂﾏﾂﾎ - ﾂ`ﾂﾌﾂﾌﾁ@ﾂsﾂﾈﾂﾅﾁ@ﾂvﾂﾁﾂﾙ
TTITLE6=ﾂbﾂﾅﾂﾌﾂﾉﾂﾎﾂﾅﾁ@ﾂcﾂﾉﾂﾏﾂﾎ - ﾂaﾂﾅﾁ@ﾂsﾂﾈﾂﾅﾁ@ﾂlﾂﾁﾂﾎﾁ@ﾁiﾂnﾂﾎﾁ@ﾂsﾂﾈﾂﾉﾂﾓﾁ@ﾂmﾂﾉﾂﾇﾂﾈﾂﾔﾁj
TTITLE7=ﾂbﾂﾅﾂﾌﾂﾉﾂﾎﾂﾅﾁ@ﾂcﾂﾉﾂﾏﾂﾎ - ﾂaﾂﾅﾂﾁﾂﾕﾂﾔﾂﾙﾁ@ﾂ`ﾂﾎﾂﾄﾁ@ﾂsﾂﾈﾂﾅﾁ@ﾂaﾂﾅﾂﾁﾂﾓﾂﾔﾁ@ﾁiﾂnﾂlﾂoﾂrﾂsﾁj
TTITLE8=ﾂbﾂﾅﾂﾌﾂﾉﾂﾎﾂﾅﾁ@ﾂcﾂﾉﾂﾏﾂﾎ - ﾂaﾂﾅﾂﾃﾂﾁﾂﾕﾂﾓﾂﾅﾁ@ﾂxﾂﾏﾂﾕﾁ@ﾂkﾂﾏﾂﾖﾂﾅﾂﾄﾁ@ﾂlﾂﾅﾁ@ﾁiﾂsﾂﾈﾂﾅﾂﾍﾂﾅﾁ@ﾂeﾂﾒ
TTITLE9=ﾂbﾂﾅﾂﾌﾂﾉﾂﾎﾂﾅﾁ@ﾂcﾂﾉﾂﾏﾂﾎ - ﾂhﾁ@ﾂvﾂﾁﾂﾎﾂﾔﾁ@ﾂxﾂﾏﾂﾕﾁ@ﾂsﾂﾏﾁ@ﾂlﾂﾅ
TTITLE10=ﾂbﾂﾅﾂﾌﾂﾉﾂﾎﾂﾅﾁ@ﾂcﾂﾉﾂﾏﾂﾎ - ﾂhﾁfﾂﾍﾁ@ﾂxﾂﾏﾂﾕﾂﾒﾁ@ﾂ`ﾂﾎﾂﾇﾂﾅﾂﾌﾁ@ﾁiﾂfﾂﾕﾂﾅﾂﾔﾁ@ﾂﾗﾂﾈﾂﾉﾂﾔﾁ@ﾂqﾁDﾂjﾁj
TTITLE11=ﾂbﾂﾅﾂﾌﾂﾉﾂﾎﾂﾅﾁ@ﾂcﾂﾉﾂﾏﾂﾎ - ﾂhﾂﾍﾂﾍﾂﾏﾂﾒﾂﾔﾂﾁﾂﾌﾂﾉﾂﾔﾂﾙ
TTITLE12=ﾂbﾂﾅﾂﾌﾂﾉﾂﾎﾂﾅﾁ@ﾂcﾂﾉﾂﾏﾂﾎ - ﾂhﾂﾔﾁfﾂﾓﾁ@ﾂ`ﾂﾌﾂﾌﾁ@ﾂbﾂﾏﾂﾍﾂﾉﾂﾎﾂﾇﾁ@ﾂaﾂﾁﾂﾃﾂﾋﾁ@ﾂsﾂﾏﾁ@ﾂlﾂﾅﾁ@ﾂmﾂﾏﾂﾗ
TTITLE13=ﾂbﾂﾅﾂﾌﾂﾉﾂﾎﾂﾅﾁ@ﾂcﾂﾉﾂﾏﾂﾎ - ﾂkﾂﾉﾂﾖﾂﾅ
TTITLE14=ﾂbﾂﾅﾂﾌﾂﾉﾂﾎﾂﾅﾁ@ﾂcﾂﾉﾂﾏﾂﾎ - ﾂlﾂﾙﾁ@ﾂgﾂﾅﾂﾁﾂﾒﾂﾔﾁ@ﾂvﾂﾉﾂﾌﾂﾌﾁ@ﾂfﾂﾏﾁ@ﾂnﾂﾎﾁ@ﾁiﾂkﾂﾏﾂﾖﾂﾅﾁ@ﾂsﾂﾈﾂﾅﾂﾍﾁj
TTITLE15=ﾂbﾂﾅﾂﾌﾂﾉﾂﾎﾂﾅﾁ@ﾂcﾂﾉﾂﾏﾂﾎ - ﾂsﾂﾈﾂﾁﾂﾔﾁfﾂﾓﾁ@ﾂsﾂﾈﾂﾅﾁ@ﾂvﾂﾁﾂﾙﾁ@ﾂhﾂﾔﾁ@ﾂhﾂﾓ
TTITLE16=ﾂbﾂﾅﾂﾌﾂﾉﾂﾎﾂﾅﾁ@ﾂcﾂﾉﾂﾏﾂﾎ - ﾂsﾂﾈﾂﾅﾁ@ﾂeﾂﾉﾂﾒﾂﾓﾂﾔﾁ@ﾂsﾂﾉﾂﾍﾂﾅﾁ@ﾂdﾂﾖﾂﾅﾂﾒﾁ@ﾂhﾁ@ﾂrﾂﾁﾂﾗﾁ@ﾂxﾂﾏﾂﾕﾂﾒ
EXTD=
EXTT0=
EXTT1=
EXTT2=
EXTT3=
EXTT4=
EXTT5=
EXTT6=
EXTT7=
EXTT8=
EXTT9=
EXTT10=
EXTT11=
EXTT12=
EXTT13=
EXTT14=
EXTT15=
EXTT16=
PLAYORDER=
